<?xml version="1.0" standalone="no"?>
<!DOCTYPE svg PUBLIC "-//W3C//DTD SVG 20010904//EN"
 "http://www.w3.org/TR/2001/REC-SVG-20010904/DTD/svg10.dtd">
<svg version="1.0" xmlns="http://www.w3.org/2000/svg"
 width="500.000000pt" height="500.000000pt" viewBox="0 0 500.000000 500.000000"
 preserveAspectRatio="xMidYMid meet">

<g transform="translate(0.000000,500.000000) scale(0.100000,-0.100000)"
fill="#000000" stroke="none">
<path d="M4087 2958 c-22 -8 -26 -14 -20 -27 4 -9 10 -160 13 -336 3 -176 7
-314 8 -306 1 10 13 12 43 8 34 -4 38 -3 23 7 -15 11 -16 24 -10 94 3 45 9 96
12 114 4 25 3 29 -5 18 -8 -11 -11 48 -11 213 0 244 2 235 -53 215z"/>
<path d="M692 2953 c27 -54 60 -144 143 -385 l98 -288 34 0 c43 0 45 -11 -37
220 -94 267 -142 422 -137 442 5 16 -2 18 -50 18 -30 0 -53 -3 -51 -7z"/>
<path d="M1162 2940 c10 -16 8 -33 -9 -92 -27 -92 -22 -101 7 -13 12 36 33 79
47 95 l25 30 -41 0 c-38 0 -40 -1 -29 -20z"/>
<path d="M3090 2941 c6 -12 10 -132 10 -321 0 -189 -4 -309 -10 -321 -10 -18
-7 -19 45 -19 52 0 55 1 45 19 -6 12 -10 95 -10 200 l0 181 161 0 161 0 -4
-183 c-2 -137 -6 -188 -17 -200 -12 -16 -8 -17 50 -17 49 0 60 3 51 12 -17 17
-17 639 0 656 9 9 -1 12 -46 12 -52 0 -57 -2 -50 -17 4 -10 9 -71 12 -135 l4
-118 -161 0 -161 0 0 119 c0 69 4 122 10 126 24 15 6 25 -45 25 -52 0 -55 -1
-45 -19z"/>
<path d="M1452 2734 c33 -10 59 -28 93 -66 25 -28 44 -57 41 -65 -4 -10 6 -13
40 -13 l44 0 -20 39 c-34 68 -130 122 -214 120 -28 0 -26 -2 16 -15z"/>
<path d="M1903 2731 c-30 -19 -91 -107 -81 -117 3 -2 11 9 18 26 14 35 73 90
96 90 64 0 84 -60 84 -256 0 -88 -4 -164 -10 -175 -10 -18 -7 -19 45 -19 50 0
55 2 46 18 -5 9 -11 91 -13 182 -4 188 -15 227 -73 254 -44 21 -73 20 -112 -3z"/>
<path d="M2834 2731 c27 -11 60 -30 73 -43 26 -24 59 -78 55 -90 -1 -5 16 -8
38 -8 45 0 45 1 26 38 -33 64 -108 110 -189 118 l-52 5 49 -20z"/>
<path d="M4280 2732 c-33 -16 -100 -93 -100 -114 0 -6 15 12 33 38 40 61 92
89 133 74 45 -18 73 -50 89 -104 19 -63 19 -107 0 -181 -27 -101 -77 -151
-167 -166 l-53 -8 57 4 c103 6 180 60 229 160 28 58 31 71 28 137 -3 57 -9 80
-28 107 -46 64 -150 89 -221 53z"/>
<path d="M1339 2720 c-115 -61 -159 -203 -99 -319 69 -135 278 -164 373 -52
15 18 27 37 27 43 0 6 -10 -4 -23 -23 -49 -74 -157 -92 -239 -40 -129 82 -139
335 -14 392 23 10 34 18 26 18 -8 0 -31 -9 -51 -19z"/>
<path d="M1718 2524 c2 -155 0 -220 -9 -230 -10 -12 -3 -14 45 -14 55 0 56 1
45 21 -7 14 -10 59 -8 118 1 53 2 147 1 209 l-2 112 -37 0 -38 0 3 -216z"/>
<path d="M2156 2688 c2 -29 5 -109 7 -178 6 -180 33 -230 124 -230 33 0 50 7
78 31 35 31 71 86 62 95 -2 3 -10 -9 -17 -26 -19 -46 -67 -82 -103 -78 -23 2
-36 12 -52 38 -18 31 -20 55 -23 218 l-4 182 -37 0 -38 0 3 -52z"/>
<path d="M2450 2725 c9 -10 11 -48 10 -122 -2 -60 -2 -156 -2 -215 l2 -108 45
0 c42 0 45 2 35 19 -6 12 -10 104 -10 230 l0 211 -46 0 c-40 0 -45 -2 -34 -15z"/>
<path d="M3631 2708 c5 -18 9 -97 9 -175 0 -157 12 -209 55 -237 51 -33 136
-13 170 41 17 27 16 26 -17 -5 -28 -27 -42 -33 -69 -30 -28 2 -37 10 -54 43
-17 34 -20 66 -23 218 l-4 177 -38 0 -39 0 10 -32z"/>
<path d="M3927 2612 c0 -70 2 -173 2 -229 l1 -103 45 0 c44 0 44 0 35 26 -6
14 -10 117 -10 230 l0 204 -37 0 -38 0 2 -128z"/>
<path d="M2679 2698 c-61 -47 -89 -105 -89 -188 0 -91 41 -162 119 -202 83
-44 192 -36 256 17 l30 25 -45 -25 c-49 -27 -118 -33 -167 -14 -130 49 -178
286 -78 386 42 42 29 42 -26 1z"/>
<path d="M1051 2549 c-17 -51 -29 -94 -27 -96 2 -2 18 37 35 88 17 51 29 94
27 96 -2 2 -18 -37 -35 -88z"/>
<path d="M1805 2570 c-4 -17 -5 -34 -2 -36 2 -3 7 10 11 27 8 42 0 50 -9 9z"/>
<path d="M4166 2585 c-3 -9 -6 -22 -5 -28 0 -7 5 -1 10 12 5 13 8 26 5 28 -2
2 -6 -3 -10 -12z"/>
<path d="M1505 2580 c-17 -7 -15 -9 12 -9 17 -1 35 4 38 9 7 12 -22 12 -50 0z"/>
<path d="M2873 2579 c-18 -5 -33 -11 -33 -12 0 -1 24 -2 53 -2 43 0 51 3 41
13 -14 14 -17 14 -61 1z"/>
<path d="M1444 2554 c-18 -14 -18 -14 6 -3 31 14 36 19 24 19 -6 0 -19 -7 -30
-16z"/>
<path d="M1560 2566 c0 -2 7 -7 16 -10 8 -3 12 -2 9 4 -6 10 -25 14 -25 6z"/>
<path d="M2975 2540 c10 -11 20 -20 23 -20 3 0 -3 9 -13 20 -10 11 -20 20 -23
20 -3 0 3 -9 13 -20z"/>
<path d="M2790 2540 c-9 -6 -10 -10 -3 -10 6 0 15 5 18 10 8 12 4 12 -15 0z"/>
<path d="M1390 2530 c-8 -5 -10 -10 -5 -10 6 0 17 5 25 10 8 5 11 10 5 10 -5
0 -17 -5 -25 -10z"/>
<path d="M1308 2513 c12 -2 30 -2 40 0 9 3 -1 5 -23 4 -22 0 -30 -2 -17 -4z"/>
<path d="M2683 2513 c9 -2 25 -2 35 0 9 3 1 5 -18 5 -19 0 -27 -2 -17 -5z"/>
<path d="M3011 2474 c0 -11 3 -14 6 -6 3 7 2 16 -1 19 -3 4 -6 -2 -5 -13z"/>
<path d="M2441 2464 c0 -11 3 -14 6 -6 3 7 2 16 -1 19 -3 4 -6 -2 -5 -13z"/>
<path d="M1642 2440 c0 -19 2 -27 5 -17 2 9 2 25 0 35 -3 9 -5 1 -5 -18z"/>
<path d="M3911 2454 c0 -11 3 -14 6 -6 3 7 2 16 -1 19 -3 4 -6 -2 -5 -13z"/>
<path d="M3002 2388 c-10 -30 -10 -31 3 -14 13 17 21 46 12 46 -1 0 -8 -15
-15 -32z"/>
<path d="M1741 2128 c0 -24 3 -36 6 -28 3 8 11 18 17 22 8 5 7 8 -1 8 -22 0
-14 28 10 33 19 4 18 4 -5 6 -27 1 -28 -1 -27 -41z"/>
<path d="M1840 2155 c-24 -29 8 -75 44 -62 21 8 22 63 0 71 -23 9 -30 8 -44
-9z m45 -25 c0 -29 -32 -41 -41 -16 -9 24 4 48 23 44 12 -2 18 -12 18 -28z"/>
<path d="M1951 2128 c1 -24 3 -35 6 -25 2 9 13 17 23 17 10 0 21 -8 23 -17 2
-10 4 0 3 22 -1 36 -4 40 -28 43 -27 3 -28 2 -27 -40z m47 15 c2 -8 -5 -13
-17 -13 -12 0 -21 6 -21 16 0 18 31 15 38 -3z"/>
<path d="M2072 2161 c-8 -5 -12 -21 -10 -37 2 -23 9 -30 31 -32 22 -3 27 1 27
17 0 13 -6 21 -17 21 -15 0 -16 -2 -3 -10 18 -11 7 -25 -15 -17 -23 9 -18 46
8 57 12 5 15 9 7 9 -8 0 -21 -3 -28 -8z"/>
<path d="M2170 2130 c0 -37 2 -40 28 -39 22 1 23 2 5 6 -30 6 -30 60 1 66 16
3 15 5 -6 6 -26 1 -28 -2 -28 -39z"/>
<path d="M2268 2163 c6 -2 13 -21 13 -41 2 -34 2 -34 6 -7 2 17 12 36 21 43
13 10 11 12 -19 11 -19 0 -28 -3 -21 -6z"/>
<path d="M2368 2163 c6 -2 13 -21 13 -41 2 -34 2 -34 6 -7 2 17 12 36 21 43
13 10 11 12 -19 11 -19 0 -28 -3 -21 -6z"/>
<path d="M2475 2135 c-8 -21 -13 -40 -10 -43 3 -3 5 0 5 6 0 16 33 15 49 0 7
-8 6 2 -5 27 -21 53 -21 53 -39 10z m25 0 c0 -8 -4 -15 -10 -15 -5 0 -7 7 -4
15 4 8 8 15 10 15 2 0 4 -7 4 -15z"/>
<path d="M2570 2131 c0 -37 3 -41 24 -41 31 0 37 10 27 46 -5 19 -15 30 -29
32 -20 3 -22 -1 -22 -37z m40 19 c0 -5 -7 -10 -15 -10 -8 0 -15 5 -15 10 0 6
7 10 15 10 8 0 15 -4 15 -10z m3 -35 c1 -5 -6 -11 -15 -13 -11 -2 -18 3 -18
13 0 17 30 18 33 0z"/>
<path d="M2770 2130 c0 -37 2 -40 28 -39 22 1 23 2 5 6 -30 6 -30 60 1 66 16
3 15 5 -6 6 -26 1 -28 -2 -28 -39z"/>
<path d="M2930 2130 c0 -35 3 -40 23 -39 16 1 18 2 5 6 -12 3 -18 14 -18 33 0
19 6 30 18 33 13 4 11 5 -5 6 -20 1 -23 -4 -23 -39z"/>
<path d="M3130 2130 c0 -37 2 -40 28 -39 22 1 23 2 5 6 -30 6 -30 60 1 66 16
3 15 5 -6 6 -26 1 -28 -2 -28 -39z"/>
<path d="M3347 2162 c6 -4 13 -23 16 -42 l4 -35 1 37 c1 20 8 39 15 41 6 3 -1
6 -18 6 -17 0 -25 -3 -18 -7z"/>
<path d="M3447 2163 c-13 -13 -7 -32 13 -38 11 -3 20 -11 20 -17 0 -6 -9 -8
-20 -5 -11 3 -20 1 -20 -4 0 -13 38 -11 46 3 4 7 -2 18 -14 26 -28 18 -29 36
-2 29 11 -3 18 -1 14 4 -6 11 -28 12 -37 2z"/>
<path d="M1511 2144 c-1 -29 23 -59 43 -51 11 4 15 17 14 39 l-1 33 -4 -32
c-3 -20 -10 -33 -18 -33 -8 0 -19 15 -24 33 -6 21 -9 25 -10 11z"/>
<path d="M1621 2128 c1 -26 3 -28 6 -9 l5 23 29 -28 29 -28 -1 40 c-1 30 -2
34 -8 16 l-6 -24 -19 21 c-27 29 -36 26 -35 -11z"/>
<path d="M2672 2128 c2 -27 8 -33 28 -35 14 -1 18 0 8 3 -12 4 -18 15 -18 35
0 16 -5 29 -11 29 -6 0 -9 -14 -7 -32z"/>
<path d="M3026 2145 c3 -11 9 -28 11 -37 3 -10 8 -18 12 -18 8 0 32 62 27 68
-2 2 -7 -6 -11 -17 -8 -27 -19 -27 -34 2 -9 17 -10 17 -5 2z"/>
<path d="M3221 2128 c1 -26 3 -28 6 -9 l5 23 29 -28 29 -28 -1 40 c-1 30 -2
34 -8 16 l-6 -24 -19 21 c-27 29 -36 26 -35 -11z"/>
<path d="M2380 1035 c0 -30 3 -35 23 -34 16 1 18 2 5 6 -10 2 -18 8 -18 13 0
5 8 11 18 13 16 4 16 5 0 6 -10 0 -18 5 -18 10 0 5 8 12 18 14 13 4 11 5 -5 6
-20 1 -23 -4 -23 -34z"/>
<path d="M2440 1055 c0 -9 7 -18 15 -21 20 -8 19 -21 -2 -28 -11 -3 -8 -4 6
-3 31 3 40 27 12 34 -26 7 -27 20 -3 26 13 4 11 5 -5 6 -15 1 -23 -5 -23 -14z"/>
<path d="M2507 1062 c6 -4 13 -21 16 -37 l4 -30 2 32 c0 17 7 34 14 36 6 3 -1
6 -18 6 -16 0 -25 -3 -18 -7z"/>
<path d="M2560 1035 c0 -30 3 -35 25 -35 27 0 45 24 38 51 -4 13 -14 19 -34
19 -26 0 -29 -3 -29 -35z m53 13 c7 -21 -4 -38 -24 -38 -14 0 -19 7 -19 25 0
18 5 25 19 25 11 0 21 -6 24 -12z"/>
<path d="M2403 953 c21 -6 22 -21 0 -45 -15 -17 -15 -18 8 -18 17 0 20 3 10 9
-9 6 -10 11 -2 15 6 4 11 16 11 27 0 13 -6 19 -22 18 -17 -1 -19 -2 -5 -6z"/>
<path d="M2450 930 c0 -34 26 -52 41 -29 15 24 6 54 -18 57 -20 3 -23 -1 -23
-28z m35 -5 c0 -10 -6 -20 -12 -22 -8 -3 -13 5 -13 22 0 17 5 25 13 23 6 -3
12 -13 12 -23z"/>
<path d="M2543 954 c4 -7 -3 -23 -14 -38 l-20 -26 28 1 c18 1 22 3 10 6 -18 5
-18 6 -1 24 14 16 15 22 4 32 -8 7 -10 8 -7 1z"/>
<path d="M2578 953 c6 -2 10 -9 6 -14 -3 -5 0 -9 5 -9 15 0 14 -28 -1 -33 -8
-2 -7 -3 2 -3 10 1 15 12 15 34 1 26 -3 32 -20 31 -11 0 -14 -3 -7 -6z"/>
</g>
</svg>
