<svg width="14" height="25" viewBox="0 0 14 25" fill="none" xmlns="http://www.w3.org/2000/svg">
<g id="Icon">
<path id="Vector" d="M4.30676 9.07959C4.30676 9.23193 4.36389 9.361 4.47815 9.4668C4.59241 9.57259 4.72571 9.62126 4.87805 9.61279L8.52161 9.51123L2.97375 15.0591C2.86373 15.1691 2.80872 15.3003 2.80872 15.4526C2.80872 15.605 2.86373 15.7362 2.97375 15.8462C3.08378 15.9562 3.21497 16.0112 3.36731 16.0112C3.51965 16.0112 3.65084 15.9562 3.76086 15.8462L9.30872 10.2983L9.20715 13.9419C9.19869 14.0942 9.24735 14.2275 9.35315 14.3418C9.45894 14.4561 9.58801 14.5132 9.74036 14.5132C9.8927 14.5132 10.026 14.4624 10.1403 14.3608C10.2545 14.2593 10.3116 14.1323 10.3116 13.98L10.4513 8.93994C10.4513 8.93994 10.4513 8.93783 10.4513 8.93359C10.4513 8.92936 10.4513 8.92725 10.4513 8.92725C10.4513 8.91878 10.4513 8.91032 10.4513 8.90186C10.4513 8.89339 10.4513 8.88493 10.4513 8.87646C10.4428 8.81722 10.428 8.76009 10.4069 8.70508C10.3857 8.65006 10.354 8.6014 10.3116 8.55908C10.2947 8.54215 10.2799 8.52734 10.2672 8.51465C10.2545 8.50195 10.2397 8.48714 10.2228 8.47021C10.1805 8.44482 10.1339 8.42155 10.0831 8.40039C10.0323 8.37923 9.97734 8.36865 9.91809 8.36865C9.90963 8.36865 9.90328 8.36865 9.89905 8.36865C9.89482 8.36865 9.88847 8.36865 9.88 8.36865L4.83997 8.5083C4.68762 8.5083 4.56067 8.56543 4.45911 8.67969C4.35754 8.79395 4.30676 8.92725 4.30676 9.07959ZM10.2863 9.3208L9.8927 8.92725L9.88 8.36865L10.2863 9.3208Z" fill="white"/>
</g>
</svg>
